<?xml version="1.0" encoding="UTF-8"?>
<svg width="400px" height="400px"
    viewBox="-400.30714614911624 -700.826803885355343 800.508283921686798 1000.29608718093833" version="1.1"
    xmlns="http://www.w3.org/2000/svg" xmlns:xlink="http://www.w3.org/1999/xlink">
    <path stroke="none" fill='black'
        style="fill: none;fill-rule: nonzero; stroke-width: 1; fill-opacity: 0.8; stroke-opacity: 1; stroke:black "
        d="M-118.82435608091659,-314.11243637187806L-118.8243560809161,126.29167845041147L-156.04437540872786,126.29167845041151L-147.99797870461887,89.95181963336623A253.81857645560723 253.81857645560723,0,0,0,-93.32903974210898,95.95391415697337L-93.35876960792046,133.17392161126818L-118.97779405905278,160.17383688770872A106.54330356228027 106.54330356228027,0,0,1,-152.18595303082793,82.88585527443345A106.54330356228034 106.54330356228034,0,0,1,-126.12505091499445,13.071396948258728L-98.00919156739693,37.46049885687348L-120.57216998693883,67.0618813178662A123.60416918640189 123.60416918640189,0,0,1,-169.24681865494944,-31.24151432615369A123.60416918640223 123.60416918640223,0,1,1,77.96151971785498,-31.241514326153602A123.60416918640249 123.60416918640249,0,0,1,29.28687104984446,67.0618813178661L6.723892630302453,37.46049885687348L34.839751977899994,13.071396948258784A106.54330356228081 106.54330356228081,0,0,1,60.90065409373345,82.88585527443357A106.54330356228145 106.54330356228145,0,0,1,51.54633945389177,126.54104930903078L17.594172351910544,111.29046939081704L3.434476127666819,76.86906846639474A253.81857645562053 253.81857645562053,0,0,0,160.6922768612811,-157.86458132826496A253.81857645561817 253.81857645561817,0,0,0,121.01267517524113,-294.13038495702057L152.41406781978284,-314.11243637187795L152.41406781978284,-276.8924170440662L-156.04437540872834,-276.8924170440663L-156.04437540872834,-314.11243637187806L-118.82435608091659,-314.11243637187806Z"
        fill-rule="odd"></path>

    <path stroke="none" fill='yellow' style="fill-rule: nonzero; stroke-width: 0; fill-opacity: 0.8; " d="
        M-118.82435608091613,126.29167845041145L-118.82435608091642,94.6497343981314A253.81857645560723
        253.81857645560723,0,1,0,-147.99797870461887,89.95181963336618L-150.55072681086608,101.4807696948429A106.5433035622803
        106.5433035622803,0,1,1,-142.9432663647419,126.29167845041147L-118.82435608091613,126.29167845041145Z"></path>

</svg>